  0
SECTION
  2
HEADER
  9
$ACADVER
  1
AC1006
  9
$EXTMIN
 10
0.000000
 20
0.000000
 30
0.000000
  9
$EXTMAX
 10
1634.000000
 20
280.000000
 30
0.000000
  0
ENDSEC
  0
SECTION
  2
ENTITIES
  0
POLYLINE
  8
0
 66
1
 70
1
  0
VERTEX
  8
0
 10
23.000000
 20
174.000000
 42
0.000000
  0
VERTEX
  8
0
 10
23.000000
 20
88.000000
 42
0.000000
  0
VERTEX
  8
0
 10
39.000000
 20
88.000000
 42
0.000000
  0
VERTEX
  8
0
 10
55.000000
 20
88.000000
 42
0.000000
  0
VERTEX
  8
0
 10
55.000000
 20
77.987121
 42
0.000000
  0
VERTEX
  8
0
 10
55.000000
 20
67.974243
 42
0.000000
  0
VERTEX
  8
0
 10
203.750000
 20
68.237121
 42
0.000000
  0
VERTEX
  8
0
 10
352.500000
 20
68.500000
 42
0.000000
  0
VERTEX
  8
0
 10
358.181603
 20
71.290085
 42
0.038574
  0
VERTEX
  8
0
 10
362.493355
 20
73.837259
 42
0.043036
  0
VERTEX
  8
0
 10
366.195758
 20
76.935055
 42
0.041718
  0
VERTEX
  8
0
 10
369.404807
 20
80.709084
 42
0.032644
  0
VERTEX
  8
0
 10
372.243861
 20
85.277804
 42
0.000000
  0
VERTEX
  8
0
 10
374.500000
 20
89.500000
 42
0.000000
  0
VERTEX
  8
0
 10
374.783908
 20
171.500000
 42
0.000640
  0
VERTEX
  8
0
 10
374.852877
 20
203.097212
 42
0.001024
  0
VERTEX
  8
0
 10
374.821986
 20
230.073438
 42
0.000174
  0
VERTEX
  8
0
 10
374.737441
 20
253.941149
 42
0.059343
  0
VERTEX
  8
0
 10
374.514856
 20
255.750000
 42
0.165894
  0
VERTEX
  8
0
 10
373.692851
 20
257.033069
 42
0.130390
  0
VERTEX
  8
0
 10
372.170775
 20
257.699879
 42
0.036017
  0
VERTEX
  8
0
 10
369.030860
 20
257.956628
 42
0.002396
  0
VERTEX
  8
0
 10
359.980948
 20
258.000000
 42
-0.005416
  0
VERTEX
  8
0
 10
354.138954
 20
258.063279
 42
-0.012436
  0
VERTEX
  8
0
 10
349.745237
 20
258.267881
 42
-0.007378
  0
VERTEX
  8
0
 10
346.400619
 20
258.556767
 42
-0.384956
  0
VERTEX
  8
0
 10
346.000000
 20
259.000000
 42
0.412314
  0
VERTEX
  8
0
 10
345.509256
 20
259.493940
 42
0.000075
  0
VERTEX
  8
0
 10
305.375000
 20
259.748452
 42
0.001144
  0
VERTEX
  8
0
 10
255.685421
 20
259.942456
 42
0.000404
  0
VERTEX
  8
0
 10
184.500000
 20
260.000000
 42
0.000000
  0
VERTEX
  8
0
 10
23.000000
 20
260.000000
 42
0.000000
  0
SEQEND
  0
POLYLINE
  8
0
 66
1
 70
1
  0
VERTEX
  8
0
 10
55.000000
 20
246.911106
 42
0.000000
  0
VERTEX
  8
0
 10
55.000000
 20
236.822213
 42
0.000000
  0
VERTEX
  8
0
 10
57.978117
 20
239.328133
 42
-0.044613
  0
VERTEX
  8
0
 10
61.655870
 20
241.900439
 42
-0.022578
  0
VERTEX
  8
0
 10
66.684520
 20
244.493043
 42
-0.022329
  0
VERTEX
  8
0
 10
72.117473
 20
246.702337
 42
-0.032589
  0
VERTEX
  8
0
 10
77.086887
 20
248.112054
 42
-0.044847
  0
VERTEX
  8
0
 10
82.439127
 20
248.766258
 42
-0.017844
  0
VERTEX
  8
0
 10
89.843551
 20
248.738922
 42
-0.016743
  0
VERTEX
  8
0
 10
97.036794
 20
248.213908
 42
-0.069484
  0
VERTEX
  8
0
 10
101.250000
 20
247.160125
 42
0.000000
  0
VERTEX
  8
0
 10
104.000000
 20
246.049502
 42
0.000000
  0
VERTEX
  8
0
 10
104.001822
 20
225.774751
 42
0.000000
  0
VERTEX
  8
0
 10
104.003644
 20
205.500000
 42
0.000000
  0
VERTEX
  8
0
 10
97.986715
 20
205.839583
 42
0.013064
  0
VERTEX
  8
0
 10
94.315156
 20
205.950689
 42
0.077377
  0
VERTEX
  8
0
 10
92.420857
 20
205.663774
 42
0.100014
  0
VERTEX
  8
0
 10
90.928928
 20
204.840710
 42
0.028993
  0
VERTEX
  8
0
 10
89.016767
 20
203.017949
 42
0.038639
  0
VERTEX
  8
0
 10
87.835501
 20
201.539487
 42
0.026788
  0
VERTEX
  8
0
 10
86.728958
 20
199.707308
 42
0.027114
  0
VERTEX
  8
0
 10
85.851196
 20
197.821049
 42
0.049010
  0
VERTEX
  8
0
 10
85.375272
 20
196.186835
 42
0.067384
  0
VERTEX
  8
0
 10
85.252272
 20
193.771467
 42
0.062236
  0
VERTEX
  8
0
 10
85.765295
 20
191.340631
 42
0.033179
  0
VERTEX
  8
0
 10
87.161517
 20
188.025701
 42
0.005819
  0
VERTEX
  8
0
 10
90.268290
 20
182.008468
 42
-0.032912
  0
VERTEX
  8
0
 10
97.727265
 20
165.415025
 42
-0.066658
  0
VERTEX
  8
0
 10
100.895608
 20
151.477744
 42
-0.077106
  0
VERTEX
  8
0
 10
100.074953
 20
138.570708
 42
-0.059472
  0
VERTEX
  8
0
 10
95.415108
 20
125.236960
 42
-0.075946
  0
VERTEX
  8
0
 10
89.503389
 20
116.717313
 42
-0.045808
  0
VERTEX
  8
0
 10
80.251304
 20
108.585761
 42
-0.045914
  0
VERTEX
  8
0
 10
69.718539
 20
102.304811
 42
-0.078678
  0
VERTEX
  8
0
 10
59.936078
 20
99.397132
 42
0.000000
  0
VERTEX
  8
0
 10
55.000000
 20
98.742339
 42
0.000000
  0
VERTEX
  8
0
 10
55.000000
 20
94.871169
 42
0.000000
  0
VERTEX
  8
0
 10
55.000000
 20
91.000000
 42
0.000000
  0
VERTEX
  8
0
 10
40.500000
 20
91.000000
 42
0.000000
  0
VERTEX
  8
0
 10
26.000000
 20
91.000000
 42
0.000000
  0
VERTEX
  8
0
 10
26.000000
 20
174.000000
 42
0.000000
  0
VERTEX
  8
0
 10
26.000000
 20
257.000000
 42
0.000000
  0
VERTEX
  8
0
 10
40.500000
 20
257.000000
 42
0.000000
  0
VERTEX
  8
0
 10
55.000000
 20
257.000000
 42
0.000000
  0
SEQEND
  0
POLYLINE
  8
0
 66
1
 70
1
  0
VERTEX
  8
0
 10
164.000000
 20
195.000000
 42
0.000607
  0
VERTEX
  8
0
 10
164.039150
 20
162.774583
 42
0.009003
  0
VERTEX
  8
0
 10
164.270000
 20
151.480000
 42
0.022228
  0
VERTEX
  8
0
 10
164.765647
 20
145.514285
 42
0.166014
  0
VERTEX
  8
0
 10
166.000000
 20
143.000000
 42
0.060356
  0
VERTEX
  8
0
 10
167.825146
 20
141.569312
 42
0.136912
  0
VERTEX
  8
0
 10
169.500000
 20
141.101935
 42
0.136912
  0
VERTEX
  8
0
 10
171.174854
 20
141.569312
 42
0.060356
  0
VERTEX
  8
0
 10
173.000000
 20
143.000000
 42
0.166014
  0
VERTEX
  8
0
 10
174.234353
 20
145.514285
 42
0.022228
  0
VERTEX
  8
0
 10
174.730000
 20
151.480000
 42
0.009003
  0
VERTEX
  8
0
 10
174.960850
 20
162.774583
 42
0.000607
  0
VERTEX
  8
0
 10
175.000000
 20
195.000000
 42
0.000000
  0
VERTEX
  8
0
 10
175.000000
 20
245.000000
 42
0.000000
  0
VERTEX
  8
0
 10
196.500000
 20
245.000000
 42
0.000000
  0
VERTEX
  8
0
 10
218.000000
 20
245.000000
 42
0.000000
  0
VERTEX
  8
0
 10
218.000000
 20
196.047053
 42
0.001278
  0
VERTEX
  8
0
 10
218.059384
 20
172.813034
 42
0.004405
  0
VERTEX
  8
0
 10
218.269113
 20
157.749337
 42
0.003044
  0
VERTEX
  8
0
 10
218.577688
 20
147.045095
 42
0.098471
  0
VERTEX
  8
0
 10
219.171439
 20
144.523076
 42
0.102227
  0
VERTEX
  8
0
 10
220.721742
 20
142.402470
 42
0.135616
  0
VERTEX
  8
0
 10
222.846962
 20
141.333095
 42
0.138395
  0
VERTEX
  8
0
 10
225.186713
 20
141.517001
 42
0.108363
  0
VERTEX
  8
0
 10
227.340980
 20
142.895893
 42
0.158190
  0
VERTEX
  8
0
 10
228.685310
 20
145.530844
 42
0.027831
  0
VERTEX
  8
0
 10
229.260711
 20
151.133572
 42
0.009720
  0
VERTEX
  8
0
 10
229.556246
 20
161.974576
 42
0.000568
  0
VERTEX
  8
0
 10
229.776983
 20
195.027135
 42
0.000000
  0
VERTEX
  8
0
 10
230.053965
 20
245.000000
 42
0.000000
  0
VERTEX
  8
0
 10
251.065330
 20
245.000000
 42
0.000000
  0
VERTEX
  8
0
 10
272.076695
 20
245.000000
 42
0.000000
  0
VERTEX
  8
0
 10
271.788348
 20
187.250000
 42
0.000000
  0
VERTEX
  8
0
 10
271.500000
 20
129.500000
 42
0.000000
  0
VERTEX
  8
0
 10
268.315020
 20
122.776671
 42
-0.074731
  0
VERTEX
  8
0
 10
260.878126
 20
111.707544
 42
-0.081168
  0
VERTEX
  8
0
 10
250.699591
 20
103.675949
 42
-0.082033
  0
VERTEX
  8
0
 10
238.590575
 20
99.360333
 42
-0.078547
  0
VERTEX
  8
0
 10
225.547062
 20
99.074735
 42
-0.057136
  0
VERTEX
  8
0
 10
217.808278
 20
101.042749
 42
-0.048251
  0
VERTEX
  8
0
 10
210.232646
 20
104.792336
 42
-0.049149
  0
VERTEX
  8
0
 10
203.665610
 20
109.828796
 42
-0.066286
  0
VERTEX
  8
0
 10
198.927787
 20
115.616843
 42
0.000000
  0
VERTEX
  8
0
 10
196.811903
 20
119.040416
 42
0.000000
  0
VERTEX
  8
0
 10
194.058538
 20
115.239507
 42
-0.037052
  0
VERTEX
  8
0
 10
190.323336
 20
110.813743
 42
-0.030493
  0
VERTEX
  8
0
 10
185.736465
 20
106.669232
 42
-0.031210
  0
VERTEX
  8
0
 10
180.840671
 20
103.237174
 42
-0.047783
  0
VERTEX
  8
0
 10
176.185272
 20
100.968130
 42
-0.057577
  0
VERTEX
  8
0
 10
169.413068
 20
99.289330
 42
-0.032463
  0
VERTEX
  8
0
 10
160.954522
 20
98.755161
 42
-0.032444
  0
VERTEX
  8
0
 10
152.482556
 20
99.321090
 42
-0.056675
  0
VERTEX
  8
0
 10
145.665008
 20
101.024147
 42
-0.060606
  0
VERTEX
  8
0
 10
140.115491
 20
103.906856
 42
-0.040832
  0
VERTEX
  8
0
 10
134.566306
 20
108.410552
 42
-0.040406
  0
VERTEX
  8
0
 10
129.747092
 20
113.832218
 42
-0.054187
  0
VERTEX
  8
0
 10
126.382175
 20
119.476398
 42
-0.053585
  0
VERTEX
  8
0
 10
123.432703
 20
128.309612
 42
-0.035603
  0
VERTEX
  8
0
 10
121.898305
 20
138.889631
 42
-0.016050
  0
VERTEX
  8
0
 10
121.206862
 20
155.848016
 42
-0.001996
  0
VERTEX
  8
0
 10
121.034888
 20
192.750000
 42
0.000000
  0
VERTEX
  8
0
 10
121.000000
 20
245.000000
 42
0.000000
  0
VERTEX
  8
0
 10
142.500000
 20
245.000000
 42
0.000000
  0
VERTEX
  8
0
 10
164.000000
 20
245.000000
 42
0.000000
  0
SEQEND
  0
POLYLINE
  8
0
 66
1
 70
1
  0
VERTEX
  8
0
 10
340.982636
 20
193.750000
 42
-0.001898
  0
VERTEX
  8
0
 10
340.830602
 20
156.973758
 42
-0.018657
  0
VERTEX
  8
0
 10
340.129772
 20
141.492263
 42
-0.043675
  0
VERTEX
  8
0
 10
338.440199
 20
131.640145
 42
-0.045168
  0
VERTEX
  8
0
 10
335.075109
 20
122.346809
 42
-0.091312
  0
VERTEX
  8
0
 10
326.847501
 20
110.817297
 42
-0.083853
  0
VERTEX
  8
0
 10
314.824379
 20
102.564292
 42
-0.085017
  0
VERTEX
  8
0
 10
300.914642
 20
98.795150
 42
-0.097839
  0
VERTEX
  8
0
 10
287.250000
 20
100.167101
 42
0.000000
  0
VERTEX
  8
0
 10
284.000000
 20
101.155104
 42
0.000000
  0
VERTEX
  8
0
 10
284.000000
 20
121.454715
 42
0.000000
  0
VERTEX
  8
0
 10
284.000000
 20
141.754326
 42
0.000000
  0
VERTEX
  8
0
 10
288.250000
 20
141.282149
 42
0.024573
  0
VERTEX
  8
0
 10
290.640134
 20
141.134943
 42
0.082136
  0
VERTEX
  8
0
 10
292.187871
 20
141.371280
 42
0.091325
  0
VERTEX
  8
0
 10
293.487026
 20
142.076927
 42
0.034879
  0
VERTEX
  8
0
 10
295.000000
 20
143.484853
 42
0.000000
  0
VERTEX
  8
0
 10
297.500000
 20
146.159734
 42
0.000000
  0
VERTEX
  8
0
 10
297.777227
 20
195.579867
 42
0.000000
  0
VERTEX
  8
0
 10
298.054454
 20
245.000000
 42
0.000000
  0
VERTEX
  8
0
 10
319.527227
 20
245.000000
 42
0.000000
  0
VERTEX
  8
0
 10
341.000000
 20
245.000000
 42
0.000000
  0
SEQEND
  0
ENDSEC
  0
EOF
