<svg id="Layer_1" data-name="Layer 1" xmlns="http://www.w3.org/2000/svg" xmlns:xlink="http://www.w3.org/1999/xlink" viewBox="0 0 522.74 89.58"><defs><style>.cls-1{fill:none;}.cls-2{fill:#fff;stroke:#000;stroke-miterlimit:10;}.cls-3{clip-path:url(#clip-path);}.cls-4{fill:#98a29a;}.cls-5{clip-path:url(#clip-path-2);}.cls-6{fill:#254061;}</style><clipPath id="clip-path" transform="translate(-17.44 -7.02)"><polyline class="cls-1" points="540.18 114.17 540.18 7.02 17.45 7.02 17.45 114.17"/></clipPath><clipPath id="clip-path-2" transform="translate(-17.44 -7.02)"><rect class="cls-1" x="17.45" y="7.02" width="120.11" height="67.88"/></clipPath></defs><rect class="cls-2" x="7.82" y="6.93" width="102.42" height="54.03"/><g class="cls-3"><path class="cls-4" d="M537.09,96.61l.24-1.87" transform="translate(-17.44 -7.02)"/></g><g class="cls-5"><path class="cls-6" d="M127.71,7H27.28a9.81,9.81,0,0,0-9.84,9.86V65.06a9.8,9.8,0,0,0,9.84,9.85H127.71a9.8,9.8,0,0,0,9.84-9.85V16.88A9.81,9.81,0,0,0,127.71,7m-77,23.91s-3.77-1.63-5.52,1.53c-1.65,3,.47,4.2,2.43,8.5,1.34,3,3.74,7.48.8,14.56s-10.58,9.75-14.94,9.53A13.47,13.47,0,0,1,27,63.4V50.25s4.2,2.79,6.57,0-1.26-6.77-2.22-9.37c-.55-1.5-3.15-8-.57-14.14C34,18.81,43.17,14.9,50.66,17.86ZM104,55.26a12.92,12.92,0,0,1-12.8,9.79A12.3,12.3,0,0,1,80.4,58.47c-3.34,4.94-6.48,6.58-11.4,6.58s-7.75-1.57-10.39-5.36-2.33-10.44-2.33-10.44V18.11H69.82V48.66s-.13,2.83,1.83,2.83,1.94-2.85,1.94-2.85V18.11H87.13V48.7s-.07,2.79,1.89,2.79,2-2.8,2-2.8V18.11h13.54v31a31,31,0,0,1-.5,6.18m22.48-7.2c0,16.14-12.16,17-14,17a15.89,15.89,0,0,1-4.18-.83V51a2.86,2.86,0,0,0,3,.25c1.77-.85,1.56-4.62,1.56-4.62V18.11h13.53Z" transform="translate(-17.44 -7.02)"/></g><g class="cls-3"><path class="cls-4" d="M502.46,20.42l13.95,26.41V65.3h9.43V46.83l14.34-26.41H529.52l-5.81,12.4c-1,2.13-1.87,4.32-2.39,5.62a40,40,0,0,0-2.26-5.75l-5.75-12.27Zm-3.55,4.45a21.33,21.33,0,0,0-14.27-5.16,18.61,18.61,0,0,0-10.92,3.16c-6.26,4.2-9.36,10.92-9.36,20.41,0,6.72,1.49,11.49,4.78,15.69,3.62,4.65,8.59,6.85,15.31,6.85a28.79,28.79,0,0,0,14.91-4V40.37H482l1.16,7.37H490v10.2a10.69,10.69,0,0,1-5.1,1.1,10,10,0,0,1-7-2.52c-2.26-2.26-3.36-6.4-3.36-12.79,0-6.72.77-11.56,3.81-14.46A9.13,9.13,0,0,1,484.77,27a14.18,14.18,0,0,1,9.36,3.49Zm-59.09,1.94a8.11,8.11,0,0,1,7.88,5.68,35.85,35.85,0,0,1,1.16,10.4c0,11.43-2.64,16.21-8.91,16.21a8.94,8.94,0,0,1-5.36-1.55c-2.71-1.94-4-6.78-4-14.53,0-5.42.71-9.36,2.26-12.27a7.82,7.82,0,0,1,7-3.94m.13-7a20,20,0,0,0-9.3,2.19c-6.46,3.55-10.14,11.3-10.14,21,0,6.59,1.75,12.27,5.17,16.66S433.49,66,440.27,66a17.16,17.16,0,0,0,9-2.06c6.52-3.56,10-11.18,10-21.32,0-14.08-7.36-22.79-19.31-22.79m-47.2.58V65.3h23.7l1.61-7.49H402V20.42ZM366,26.81a8.11,8.11,0,0,1,7.88,5.68A36.2,36.2,0,0,1,375,42.89c0,11.43-2.65,16.21-8.91,16.21a8.92,8.92,0,0,1-5.36-1.55c-2.72-1.94-4-6.78-4-14.53,0-5.42.71-9.36,2.26-12.27a7.82,7.82,0,0,1,7-3.94m.13-7a19.94,19.94,0,0,0-9.3,2.19c-6.46,3.55-10.14,11.3-10.14,21,0,6.59,1.74,12.27,5.16,16.66S359.62,66,366.4,66a17.2,17.2,0,0,0,9-2.06c6.52-3.56,10-11.18,10-21.32,0-14.08-7.37-22.79-19.31-22.79m-57.8.58V65.3H317l-.25-19.18c-.07-3.74-.13-9-.46-12.72.84,2.78,3.56,9.1,6.07,14.72L330,65.3h9.43V20.42h-8.59l.19,18.34c.07,3.1.39,8.85.71,12.33a85.24,85.24,0,0,0-4.91-12.72l-8.58-17.95Zm-41.92,0V65.3h9v-20h12.92v20h9.17V20.42h-9.17V37.85H275.34V20.42ZM259.52,23c-2.46-2.13-6.91-3.55-11.37-3.55A19.28,19.28,0,0,0,231,29.85c-2.06,3.87-3,8.33-3,13.95,0,6.58,1.81,12,5.42,16.08s8.46,6.2,14.66,6.2a18.39,18.39,0,0,0,12.47-4.2l-4.14-5.68a11.58,11.58,0,0,1-7.68,2.9,9.32,9.32,0,0,1-8.66-5c-1.35-2.45-1.87-5.87-1.87-12,0-5.23.78-9,2.52-11.56a9.31,9.31,0,0,1,7.62-3.87,11.82,11.82,0,0,1,7.17,2.52Zm-63.16-2.58V65.3h26.15V57.55h-17v-12h12.72V38.18H205.4V27.78h15.37l1.16-7.36Zm-37.85,0v7.49h11V65.3h9.17V27.91h10.72l1.49-7.49Z" transform="translate(-17.44 -7.02)"/></g></svg>